Coordinates
version=1
nRows=6
nColumns=36
inDegrees=yes

Units are S.I. units (second, meters, Newtons, ...)
If the header above contains a line with 'inDegrees', this indicates whether rotational values are in degrees (yes) or radians (no).

endheader
time	pelvis_tilt	pelvis_list	pelvis_rotation	pelvis_tx	pelvis_ty	pelvis_tz	hip_flexion_r	hip_adduction_r	hip_rotation_r	knee_angle_r	knee_angle_r_beta	ankle_angle_r	subtalar_angle_r	mtp_angle_r	hip_flexion_l	hip_adduction_l	hip_rotation_l	knee_angle_l	knee_angle_l_beta	ankle_angle_l	subtalar_angle_l	mtp_angle_l	lumbar_extension	lumbar_bending	lumbar_rotation	arm_flex_r	arm_add_r	arm_rot_r	elbow_flex_r	pro_sup_r	arm_flex_l	arm_add_l	arm_rot_l	elbow_flex_l	pro_sup_l
      5.90000000	     -2.45604645	     11.95563548	      2.31802037	      0.09741531	      0.98015249	      0.07061148	      8.22105678	     -4.10884892	      7.16324007	     14.77451859	      0.25786399	     19.50861887	      0.45406852	     -7.49999987	     41.39469810	      5.53156472	     -0.93562981	     16.68365875	      0.29118478	     -4.32483568	     -4.54389166	     -7.49999987	     -4.23303346	    -10.41737848	     -1.35073633	     76.65429022	     22.10835014	     66.17945064	    146.05506270	    104.17621737	     95.08534199	     10.73037166	     74.76308437	    106.44123858	     76.02222025
      5.91666670	     -2.48585924	     11.86678273	      1.88953910	      0.10340887	      0.98070048	      0.07106726	      8.15788039	     -3.96760542	      7.42972847	     14.70607445	      0.25666942	     19.18132763	     -0.05495373	     -7.49999987	     40.71159583	      5.45327894	     -0.88592225	     16.19636119	      0.28267983	     -4.16485598	     -4.45248913	     -7.49999987	     -3.45520039	    -10.38002805	     -1.70065740	     75.79914443	     22.29043307	     66.51248909	    146.10455449	    108.14607408	     94.16790588	     10.31210524	     75.03536088	    105.87165223	     77.29224308
      5.93333330	     -2.31121885	     11.90351098	      1.45862872	      0.10312882	      0.98194850	      0.07140407	      7.82224165	     -3.98130755	      7.64351328	     14.60623093	      0.25492682	     18.98335172	     -0.09580514	     -7.49999987	     39.96861169	      5.46039064	     -1.11770356	     15.75071157	      0.27490178	     -4.09706021	     -4.66563560	     -7.49999987	     -2.95271815	    -10.48560657	     -1.86867759	     75.19559973	     22.46727378	     66.74324158	    145.99977535	    107.84459275	     93.46097108	      9.83677948	     75.41186469	    105.10493019	     77.07665041
      5.95000000	     -2.51037177	     11.68153071	      1.44746326	      0.10341693	      0.97482966	      0.06995480	      8.25194934	     -3.80330103	      7.56959636	     14.73384897	      0.25715418	     19.49417514	     -0.22610939	     -7.49999987	     40.25208020	      5.46363881	     -1.10342456	     16.06238928	      0.28034158	     -3.69194186	     -4.75914731	     -7.49999987	     -2.61020458	    -10.15889096	     -1.71083819	     75.57441357	     21.96641793	     64.91527820	    146.06300541	    107.71122083	     93.61524378	      9.94384469	     74.77812489	    105.07618771	     77.25689191
      5.96666670	     -2.65909068	     11.63416517	      1.15932696	      0.10563178	      0.97431657	      0.06989523	      8.46567433	     -3.76729730	      7.71230841	     14.88924631	      0.25986637	     20.15663534	     -0.12747503	     -7.49999987	     40.44851092	      5.42567878	     -0.97205207	     16.25183732	      0.28364807	     -3.48953200	     -5.00454377	     -7.49999987	     -1.95448296	    -10.08076322	     -1.89554656	     75.29288820	     22.27890979	     64.78306099	    146.37088216	    107.66895315	     93.34938165	      9.94275173	     74.88639590	    104.65091722	     78.71252292
      5.98333330	     -2.84939119	     11.56377944	      1.03651356	      0.10973573	      0.97696331	      0.07067734	      8.54633929	     -3.69980393	      7.75895645	     15.00770001	      0.26193378	     20.31467400	     -0.09671337	     -7.49999987	     40.24661984	      5.45460054	     -0.98182921	     15.91871952	      0.27783407	     -3.20570318	     -4.99468767	     -7.49999987	     -1.08233184	    -10.00691587	     -1.48921091	     74.80583934	     21.94670978	     65.62229033	    146.69381245	    107.92101656	     92.75638788	     10.34356600	     74.75948801	    105.63760222	     79.88729607
